<svg width="62" height="67" viewBox="0 0 62 67" fill="none" xmlns="http://www.w3.org/2000/svg">
<path d="M40.208 14.4C40.496 14.4 40.736 14.512 40.928 14.736C41.152 14.928 41.264 15.168 41.264 15.456L41.216 15.792L30.176 46.416C30.016 46.864 29.76 47.248 29.408 47.568C29.056 47.856 28.592 48 28.016 48H16.832C16.256 48 15.792 47.856 15.44 47.568C15.088 47.248 14.848 46.912 14.72 46.56L3.584 15.792L3.536 15.456C3.536 15.168 3.632 14.928 3.824 14.736C4.048 14.512 4.304 14.4 4.592 14.4H14.72C15.296 14.4 15.76 14.576 16.112 14.928C16.496 15.248 16.752 15.6 16.88 15.984L22.4 34.368L27.92 15.984C28.048 15.568 28.288 15.2 28.64 14.88C28.992 14.56 29.472 14.4 30.08 14.4H40.208Z" fill="#2A3FAC"/>
<path d="M59.208 14.4C59.496 14.4 59.736 14.512 59.928 14.736C60.152 14.928 60.264 15.168 60.264 15.456L60.216 15.792L49.176 46.416C49.016 46.864 48.76 47.248 48.408 47.568C48.056 47.856 47.592 48 47.016 48H35.832C35.256 48 34.792 47.856 34.44 47.568C34.088 47.248 33.848 46.912 33.72 46.56L22.584 15.792L22.536 15.456C22.536 15.168 22.632 14.928 22.824 14.736C23.048 14.512 23.304 14.4 23.592 14.4H33.72C34.296 14.4 34.76 14.576 35.112 14.928C35.496 15.248 35.752 15.6 35.88 15.984L41.4 34.368L46.92 15.984C47.048 15.568 47.288 15.2 47.64 14.88C47.992 14.56 48.472 14.4 49.08 14.4H59.208Z" fill="#2789D0"/>
<g filter="url(#filter0_f_28:12)">
<rect x="25" y="25.3332" width="0.944797" height="17.2058" transform="rotate(-20.6525 25 25.3332)" fill="black"/>
</g>
<defs>
<filter id="filter0_f_28:12" x="0" y="0" width="56.9526" height="66.4333" filterUnits="userSpaceOnUse" color-interpolation-filters="sRGB">
<feFlood flood-opacity="0" result="BackgroundImageFix"/>
<feBlend mode="normal" in="SourceGraphic" in2="BackgroundImageFix" result="shape"/>
<feGaussianBlur stdDeviation="12.5" result="effect1_foregroundBlur_28:12"/>
</filter>
</defs>
</svg>
