<svg width="61" height="67" viewBox="0 0 61 67" fill="none" xmlns="http://www.w3.org/2000/svg">
<path d="M40.208 14.4C40.496 14.4 40.736 14.512 40.928 14.736C41.152 14.928 41.264 15.168 41.264 15.456L41.216 15.792L30.176 46.416C30.016 46.864 29.76 47.248 29.408 47.568C29.056 47.856 28.592 48 28.016 48H16.832C16.256 48 15.792 47.856 15.44 47.568C15.088 47.248 14.848 46.912 14.72 46.56L3.584 15.792L3.536 15.456C3.536 15.168 3.632 14.928 3.824 14.736C4.048 14.512 4.304 14.4 4.592 14.4H14.72C15.296 14.4 15.76 14.576 16.112 14.928C16.496 15.248 16.752 15.6 16.88 15.984L22.4 34.368L27.92 15.984C28.048 15.568 28.288 15.2 28.64 14.88C28.992 14.56 29.472 14.4 30.08 14.4H40.208Z" fill="#2A3FAC"/>
<path d="M40.928 14.736L40.5484 15.0614C40.565 15.0808 40.5832 15.099 40.6026 15.1156L40.928 14.736ZM41.264 15.456L41.759 15.5267C41.7623 15.5033 41.764 15.4797 41.764 15.456H41.264ZM41.216 15.792L41.6864 15.9616C41.6979 15.9295 41.7062 15.8964 41.711 15.8627L41.216 15.792ZM30.176 46.416L29.7056 46.2464L29.7051 46.2478L30.176 46.416ZM29.408 47.568L29.7246 47.955C29.7313 47.9495 29.7379 47.9438 29.7443 47.938L29.408 47.568ZM15.44 47.568L15.1037 47.938C15.1101 47.9438 15.1167 47.9495 15.1234 47.955L15.44 47.568ZM14.72 46.56L14.2498 46.7302L14.2501 46.7309L14.72 46.56ZM3.584 15.792L3.08903 15.8627C3.09387 15.8966 3.10219 15.93 3.11385 15.9622L3.584 15.792ZM3.536 15.456H3.036C3.036 15.4797 3.03768 15.5033 3.04103 15.5267L3.536 15.456ZM3.824 14.736L4.17755 15.0896L4.17755 15.0896L3.824 14.736ZM16.112 14.928L15.7584 15.2816C15.7691 15.2922 15.7803 15.3024 15.7919 15.3121L16.112 14.928ZM16.88 15.984L17.3589 15.8402C17.3574 15.8354 17.3559 15.8306 17.3543 15.8259L16.88 15.984ZM22.4 34.368L21.9211 34.5118C21.9846 34.7232 22.1792 34.868 22.4 34.868C22.6208 34.868 22.8154 34.7232 22.8789 34.5118L22.4 34.368ZM27.92 15.984L27.4421 15.837L27.4411 15.8402L27.92 15.984ZM28.64 14.88L28.3037 14.51L28.3037 14.51L28.64 14.88ZM40.208 14.9C40.346 14.9 40.4487 14.9451 40.5484 15.0614L41.3076 14.4106C41.0233 14.0789 40.646 13.9 40.208 13.9V14.9ZM40.6026 15.1156C40.7189 15.2153 40.764 15.318 40.764 15.456H41.764C41.764 15.018 41.5851 14.6407 41.2534 14.3564L40.6026 15.1156ZM40.769 15.3853L40.721 15.7213L41.711 15.8627L41.759 15.5267L40.769 15.3853ZM40.7456 15.6224L29.7056 46.2464L30.6464 46.5856L41.6864 15.9616L40.7456 15.6224ZM29.7051 46.2478C29.5727 46.6185 29.3629 46.9332 29.0717 47.198L29.7443 47.938C30.1571 47.5628 30.4593 47.1095 30.6469 46.5842L29.7051 46.2478ZM29.0914 47.181C28.8503 47.3782 28.508 47.5 28.016 47.5V48.5C28.676 48.5 29.2617 48.3338 29.7246 47.955L29.0914 47.181ZM28.016 47.5H16.832V48.5H28.016V47.5ZM16.832 47.5C16.34 47.5 15.9977 47.3782 15.7566 47.181L15.1234 47.955C15.5863 48.3338 16.172 48.5 16.832 48.5V47.5ZM15.7763 47.198C15.4685 46.9182 15.2837 46.6471 15.1899 46.3891L14.2501 46.7309C14.4123 47.1769 14.7075 47.5778 15.1037 47.938L15.7763 47.198ZM15.1902 46.3898L4.05415 15.6218L3.11385 15.9622L14.2498 46.7302L15.1902 46.3898ZM4.07897 15.7213L4.03097 15.3853L3.04103 15.5267L3.08903 15.8627L4.07897 15.7213ZM4.036 15.456C4.036 15.2917 4.08545 15.1817 4.17755 15.0896L3.47045 14.3824C3.17855 14.6743 3.036 15.0443 3.036 15.456H4.036ZM4.17755 15.0896C4.31808 14.949 4.45049 14.9 4.592 14.9V13.9C4.15751 13.9 3.77792 14.075 3.47045 14.3824L4.17755 15.0896ZM4.592 14.9H14.72V13.9H4.592V14.9ZM14.72 14.9C15.1859 14.9 15.515 15.0381 15.7584 15.2816L16.4656 14.5744C16.005 14.1139 15.4061 13.9 14.72 13.9V14.9ZM15.7919 15.3121C16.1212 15.5865 16.3133 15.8649 16.4057 16.1421L17.3543 15.8259C17.1907 15.3351 16.8708 14.9095 16.4321 14.5439L15.7919 15.3121ZM16.4011 16.1278L21.9211 34.5118L22.8789 34.2242L17.3589 15.8402L16.4011 16.1278ZM22.8789 34.5118L28.3989 16.1278L27.4411 15.8402L21.9211 34.2242L22.8789 34.5118ZM28.3979 16.131C28.4971 15.8085 28.6843 15.5155 28.9763 15.25L28.3037 14.51C27.8917 14.8845 27.5989 15.3274 27.4421 15.837L28.3979 16.131ZM28.9763 15.25C29.2129 15.0349 29.5606 14.9 30.08 14.9V13.9C29.3834 13.9 28.7711 14.0851 28.3037 14.51L28.9763 15.25ZM30.08 14.9H40.208V13.9H30.08V14.9Z" fill="white"/>
<path d="M58.208 14.4C58.496 14.4 58.736 14.512 58.928 14.736C59.152 14.928 59.264 15.168 59.264 15.456L59.216 15.792L48.176 46.416C48.016 46.864 47.76 47.248 47.408 47.568C47.056 47.856 46.592 48 46.016 48H34.832C34.256 48 33.792 47.856 33.44 47.568C33.088 47.248 32.848 46.912 32.72 46.56L21.584 15.792L21.536 15.456C21.536 15.168 21.632 14.928 21.824 14.736C22.048 14.512 22.304 14.4 22.592 14.4H32.72C33.296 14.4 33.76 14.576 34.112 14.928C34.496 15.248 34.752 15.6 34.88 15.984L40.4 34.368L45.92 15.984C46.048 15.568 46.288 15.2 46.64 14.88C46.992 14.56 47.472 14.4 48.08 14.4H58.208Z" fill="#2789D0"/>
<path d="M58.928 14.736L58.5484 15.0614C58.565 15.0808 58.5832 15.099 58.6026 15.1156L58.928 14.736ZM59.264 15.456L59.759 15.5267C59.7623 15.5033 59.764 15.4797 59.764 15.456H59.264ZM59.216 15.792L59.6864 15.9616C59.6979 15.9295 59.7062 15.8964 59.711 15.8627L59.216 15.792ZM48.176 46.416L47.7056 46.2464L47.7051 46.2478L48.176 46.416ZM47.408 47.568L47.7246 47.955C47.7313 47.9495 47.7379 47.9438 47.7443 47.938L47.408 47.568ZM33.44 47.568L33.1037 47.938C33.1101 47.9438 33.1167 47.9495 33.1234 47.955L33.44 47.568ZM32.72 46.56L32.2498 46.7302L32.2501 46.7309L32.72 46.56ZM21.584 15.792L21.089 15.8627C21.0939 15.8966 21.1022 15.93 21.1138 15.9622L21.584 15.792ZM21.536 15.456H21.036C21.036 15.4797 21.0377 15.5033 21.041 15.5267L21.536 15.456ZM21.824 14.736L22.1776 15.0896L22.1776 15.0896L21.824 14.736ZM34.112 14.928L33.7584 15.2816C33.7691 15.2922 33.7803 15.3024 33.7919 15.3121L34.112 14.928ZM34.88 15.984L35.3589 15.8402C35.3574 15.8354 35.3559 15.8306 35.3543 15.8259L34.88 15.984ZM40.4 34.368L39.9211 34.5118C39.9846 34.7232 40.1792 34.868 40.4 34.868C40.6208 34.868 40.8154 34.7232 40.8789 34.5118L40.4 34.368ZM45.92 15.984L45.4421 15.837L45.4411 15.8402L45.92 15.984ZM46.64 14.88L46.3037 14.51L46.3037 14.51L46.64 14.88ZM58.208 14.9C58.346 14.9 58.4487 14.9451 58.5484 15.0614L59.3076 14.4106C59.0233 14.0789 58.646 13.9 58.208 13.9V14.9ZM58.6026 15.1156C58.7189 15.2153 58.764 15.318 58.764 15.456H59.764C59.764 15.018 59.5851 14.6407 59.2534 14.3564L58.6026 15.1156ZM58.769 15.3853L58.721 15.7213L59.711 15.8627L59.759 15.5267L58.769 15.3853ZM58.7456 15.6224L47.7056 46.2464L48.6464 46.5856L59.6864 15.9616L58.7456 15.6224ZM47.7051 46.2478C47.5727 46.6185 47.3629 46.9332 47.0717 47.198L47.7443 47.938C48.1571 47.5628 48.4593 47.1095 48.6469 46.5842L47.7051 46.2478ZM47.0914 47.181C46.8503 47.3782 46.508 47.5 46.016 47.5V48.5C46.676 48.5 47.2617 48.3338 47.7246 47.955L47.0914 47.181ZM46.016 47.5H34.832V48.5H46.016V47.5ZM34.832 47.5C34.34 47.5 33.9977 47.3782 33.7566 47.181L33.1234 47.955C33.5863 48.3338 34.172 48.5 34.832 48.5V47.5ZM33.7763 47.198C33.4685 46.9182 33.2837 46.6471 33.1899 46.3891L32.2501 46.7309C32.4123 47.1769 32.7075 47.5778 33.1037 47.938L33.7763 47.198ZM33.1902 46.3898L22.0542 15.6218L21.1138 15.9622L32.2498 46.7302L33.1902 46.3898ZM22.079 15.7213L22.031 15.3853L21.041 15.5267L21.089 15.8627L22.079 15.7213ZM22.036 15.456C22.036 15.2917 22.0855 15.1817 22.1776 15.0896L21.4704 14.3824C21.1785 14.6743 21.036 15.0443 21.036 15.456H22.036ZM22.1776 15.0896C22.3181 14.949 22.4505 14.9 22.592 14.9V13.9C22.1575 13.9 21.7779 14.075 21.4704 14.3824L22.1776 15.0896ZM22.592 14.9H32.72V13.9H22.592V14.9ZM32.72 14.9C33.1859 14.9 33.515 15.0381 33.7584 15.2816L34.4656 14.5744C34.005 14.1139 33.4061 13.9 32.72 13.9V14.9ZM33.7919 15.3121C34.1212 15.5865 34.3133 15.8649 34.4057 16.1421L35.3543 15.8259C35.1907 15.3351 34.8708 14.9095 34.4321 14.5439L33.7919 15.3121ZM34.4011 16.1278L39.9211 34.5118L40.8789 34.2242L35.3589 15.8402L34.4011 16.1278ZM40.8789 34.5118L46.3989 16.1278L45.4411 15.8402L39.9211 34.2242L40.8789 34.5118ZM46.3979 16.131C46.4971 15.8085 46.6843 15.5155 46.9763 15.25L46.3037 14.51C45.8917 14.8845 45.5989 15.3274 45.4421 15.837L46.3979 16.131ZM46.9763 15.25C47.2129 15.0349 47.5606 14.9 48.08 14.9V13.9C47.3834 13.9 46.7711 14.0851 46.3037 14.51L46.9763 15.25ZM48.08 14.9H58.208V13.9H48.08V14.9Z" fill="white"/>
<path d="M35.0703 15.2224C34.7262 14.5911 34.2863 14.4227 34.1094 14.4174L35.0234 14.3906L35.2933 14.4652L35.915 15.6966L36.9153 18.9846L38.362 23.7192L37.9794 24.7075L37.3776 22.7189L37.0907 21.7584L36.6124 20.1961L36.3693 19.3831L35.9628 18.048L35.7237 17.2031L35.3291 15.8561C35.2718 15.5946 35.1327 15.3247 35.0703 15.2224Z" fill="#2A3FAB"/>
<g filter="url(#filter0_f_107_20)">
<rect x="25" y="25.3332" width="0.944797" height="17.2058" transform="rotate(-20.6525 25 25.3332)" fill="black"/>
</g>
<path d="M34.1152 14.4168H32.5718L37.5703 25.707L37.9883 24.7031L36.0515 18.3165L35.3068 15.7574C34.9602 14.7066 34.368 14.4259 34.1152 14.4168Z" fill="#2788CE"/>
<path d="M24.7754 26.472L24.6001 27.0662V27.4671L30.6246 44.5504L30.8996 44.4505L31.1745 43.7006L28.1002 35.3027L26.0507 29.704L24.7754 26.472Z" fill="#2A3EA9"/>
<path d="M31.4923 42.836L31.1681 43.7031L30.6543 42.3189L29.5902 39.4135L28.8808 37.4607L28.1635 35.5039L27.5019 33.6985L27.2907 33.1485L26.5574 31.12L25.8918 29.3226L25.0748 27.2582L24.772 26.489L25.0748 25.0543L25.1865 25.3931L31.4923 42.836Z" fill="#2787CD"/>
<defs>
<filter id="filter0_f_107_20" x="0" y="0" width="56.9526" height="66.4333" filterUnits="userSpaceOnUse" color-interpolation-filters="sRGB">
<feFlood flood-opacity="0" result="BackgroundImageFix"/>
<feBlend mode="normal" in="SourceGraphic" in2="BackgroundImageFix" result="shape"/>
<feGaussianBlur stdDeviation="12.5" result="effect1_foregroundBlur_107_20"/>
</filter>
</defs>
</svg>
