<svg width="139" height="191" viewBox="0 0 139 191" fill="none" xmlns="http://www.w3.org/2000/svg">
<path d="M16.261 14.3746C16.0793 14.1667 15.7634 14.1454 15.5555 14.3271L12.1669 17.2881C11.959 17.4698 11.9377 17.7857 12.1194 17.9936C12.3011 18.2016 12.617 18.2228 12.8249 18.0411L15.837 15.4091L18.469 18.4212C18.6507 18.6291 18.9665 18.6504 19.1745 18.4687C19.3824 18.287 19.4037 17.9711 19.222 17.7632L16.261 14.3746ZM115.66 181.723C115.934 181.079 116.202 180.441 116.461 179.81L115.536 179.43C115.278 180.057 115.013 180.691 114.74 181.331L115.66 181.723ZM117.923 176.095C118.384 174.872 118.813 173.673 119.212 172.499L118.265 172.177C117.87 173.341 117.444 174.529 116.987 175.743L117.923 176.095ZM120.448 168.616C120.822 167.351 121.158 166.116 121.459 164.909L120.488 164.668C120.192 165.86 119.859 167.081 119.489 168.332L120.448 168.616ZM122.334 160.948C122.584 159.646 122.788 158.379 122.948 157.145L121.957 157.016C121.799 158.229 121.598 159.476 121.352 160.76L122.334 160.948ZM123.324 153.104C123.397 151.748 123.412 150.435 123.371 149.164L122.372 149.196C122.411 150.437 122.397 151.721 122.325 153.05L123.324 153.104ZM123.051 145.218C122.869 143.854 122.617 142.541 122.298 141.278L121.328 141.522C121.638 142.748 121.883 144.022 122.059 145.35L123.051 145.218ZM121.091 137.49C120.604 136.236 120.044 135.035 119.417 133.882L118.538 134.36C119.145 135.476 119.687 136.639 120.159 137.852L121.091 137.49ZM117.293 130.499C116.522 129.423 115.687 128.392 114.794 127.401L114.052 128.071C114.921 129.035 115.732 130.037 116.48 131.081L117.293 130.499ZM111.991 124.587C111.024 123.703 110.006 122.852 108.945 122.029L108.333 122.82C109.374 123.627 110.371 124.461 111.317 125.325L111.991 124.587ZM105.72 119.702C104.645 118.977 103.536 118.274 102.395 117.588L101.88 118.445C103.007 119.123 104.102 119.817 105.161 120.531L105.72 119.702ZM98.9624 115.624C97.8148 114.996 96.6417 114.382 95.4468 113.776L94.9949 114.668C96.1817 115.27 97.3454 115.88 98.4828 116.501L98.9624 115.624ZM91.9245 112.045C90.7498 111.483 89.558 110.927 88.3522 110.373L87.9351 111.282C89.1371 111.834 90.324 112.388 91.493 112.947L91.9245 112.045ZM84.7506 108.744C83.5655 108.214 82.3698 107.684 81.1664 107.152L80.7618 108.066C81.9649 108.598 83.1592 109.128 84.3423 109.657L84.7506 108.744ZM77.5625 105.557C76.3704 105.029 75.1732 104.495 73.9732 103.955L73.5626 104.867C74.765 105.408 75.964 105.942 77.1572 106.471L77.5625 105.557ZM70.3999 102.326C69.2129 101.777 68.0257 101.219 66.8405 100.65L66.4076 101.551C67.5978 102.123 68.7895 102.683 69.9801 103.234L70.3999 102.326ZM63.3233 98.9216C62.1565 98.3341 60.994 97.7335 59.8379 97.1176L59.3677 98.0002C60.5312 98.62 61.7006 99.2242 62.8736 99.8148L63.3233 98.9216ZM56.4033 95.2287C55.2688 94.5839 54.143 93.9219 53.0281 93.2406L52.5066 94.094C53.6312 94.7811 54.7662 95.4485 55.9091 96.0981L56.4033 95.2287ZM49.7217 91.1393C48.6355 90.4207 47.5623 89.6808 46.5041 88.9177L45.9192 89.7288C46.9888 90.5002 48.0732 91.2477 49.1699 91.9733L49.7217 91.1393ZM43.3823 86.5608C42.3627 85.7542 41.3602 84.9226 40.3768 84.064L39.7191 84.8173C40.7152 85.687 41.7302 86.5289 42.7619 87.345L43.3823 86.5608ZM37.504 81.4225C36.5715 80.5186 35.6597 79.5863 34.7706 78.6236L34.036 79.302C34.9379 80.2787 35.8627 81.2242 36.808 82.1405L37.504 81.4225ZM32.2148 75.6923C31.3906 74.69 30.59 73.6567 29.815 72.5906L29.0061 73.1785C29.793 74.2611 30.6058 75.3101 31.4424 76.3275L32.2148 75.6923ZM27.6305 69.3886C26.9349 68.3006 26.2646 67.1805 25.6213 66.0266L24.7479 66.5135C25.401 67.6851 26.0816 68.8224 26.7879 69.9272L27.6305 69.3886ZM23.8317 62.5814C23.2723 61.4229 22.7387 60.2326 22.2323 59.0088L21.3083 59.3911C21.822 60.6326 22.3634 61.8404 22.9312 63.0162L23.8317 62.5814ZM20.8464 55.3789C20.4203 54.1649 20.0196 52.9201 19.6455 51.6433L18.6859 51.9244C19.0648 53.2179 19.4708 54.4794 19.9028 55.71L20.8464 55.3789ZM18.6483 47.8987C18.3451 46.6382 18.0665 45.3482 17.8137 44.0279L16.8315 44.216C17.0873 45.5514 17.3691 46.8566 17.676 48.1325L18.6483 47.8987ZM17.1718 40.2386C16.9809 38.9482 16.8134 37.6304 16.6701 36.2842L15.6757 36.3901C15.8204 37.7495 15.9896 39.0809 16.1825 40.3849L17.1718 40.2386ZM16.3341 32.4586C16.2447 31.1766 16.1764 29.8703 16.1297 28.5389L15.1303 28.574C15.1774 29.9166 15.2463 31.2345 15.3365 32.5281L16.3341 32.4586ZM16.0554 24.5785C16.0518 23.3205 16.0667 22.0412 16.1007 20.7402L15.101 20.7141C15.0668 22.0246 15.0518 23.3135 15.0554 24.5813L16.0554 24.5785ZM16.26 16.7713C16.2962 16.0989 16.3373 15.4208 16.3834 14.7372L15.3856 14.67C15.3393 15.3581 15.2979 16.0406 15.2614 16.7175L16.26 16.7713ZM16.6375 14.0456C16.2741 13.6297 15.6424 13.5872 15.2265 13.9506L8.44931 19.8726C8.03343 20.236 7.99088 20.8677 8.35429 21.2836C8.71769 21.6995 9.34942 21.742 9.7653 21.3786L15.7895 16.1146L21.0534 22.1388C21.4168 22.5547 22.0486 22.5972 22.4645 22.2338C22.8803 21.8704 22.9229 21.2387 22.5595 20.8228L16.6375 14.0456ZM116.119 181.92C116.395 181.273 116.663 180.633 116.923 180L115.073 179.24C114.817 179.865 114.552 180.497 114.28 181.135L116.119 181.92ZM118.391 176.271C118.853 175.043 119.285 173.84 119.685 172.66L117.792 172.016C117.398 173.175 116.974 174.358 116.519 175.567L118.391 176.271ZM120.927 168.757C121.303 167.486 121.642 166.244 121.944 165.03L120.003 164.547C119.708 165.732 119.377 166.946 119.009 168.19L120.927 168.757ZM122.825 161.043C123.077 159.731 123.283 158.453 123.444 157.21L121.461 156.952C121.305 158.154 121.105 159.391 120.861 160.665L122.825 161.043ZM123.823 153.131C123.897 151.761 123.912 150.434 123.871 149.148L121.872 149.212C121.911 150.438 121.897 151.708 121.826 153.023L123.823 153.131ZM123.546 145.152C123.362 143.769 123.107 142.438 122.783 141.155L120.844 141.645C121.148 142.851 121.39 144.107 121.564 145.416L123.546 145.152ZM121.557 137.309C121.062 136.035 120.493 134.814 119.856 133.643L118.099 134.599C118.696 135.697 119.229 136.84 119.693 138.034L121.557 137.309ZM117.699 130.208C116.917 129.115 116.07 128.07 115.166 127.067L113.68 128.406C114.538 129.357 115.337 130.344 116.074 131.373L117.699 130.208ZM112.329 124.218C111.35 123.324 110.322 122.464 109.251 121.634L108.026 123.215C109.058 124.015 110.044 124.84 110.98 125.694L112.329 124.218ZM105.999 119.288C104.917 118.558 103.8 117.85 102.652 117.16L101.622 118.874C102.743 119.548 103.831 120.237 104.881 120.946L105.999 119.288ZM99.2023 115.185C98.0494 114.555 96.8717 113.938 95.6728 113.33L94.7689 115.114C95.9518 115.714 97.1108 116.321 98.2429 116.94L99.2023 115.185ZM92.1402 111.594C90.9627 111.031 89.7684 110.473 88.5607 109.919L87.7266 111.737C88.9267 112.287 90.1111 112.84 91.2773 113.398L92.1402 111.594ZM84.9547 108.287C83.7687 107.757 82.5722 107.227 81.3686 106.694L80.5596 108.523C81.7625 109.055 82.956 109.584 84.1382 110.113L84.9547 108.287ZM77.7652 105.1C76.5735 104.572 75.3773 104.039 74.1784 103.499L73.3573 105.323C74.5609 105.865 75.7609 106.399 76.9545 106.928L77.7652 105.1ZM70.6097 101.872C69.4247 101.324 68.2397 100.767 67.0569 100.199L66.1911 102.002C67.3839 102.575 68.5777 103.136 69.7702 103.687L70.6097 101.872ZM63.5482 98.4751C62.3845 97.8891 61.2254 97.2903 60.073 96.6763L59.1326 98.4415C60.2998 99.0633 61.4726 99.6692 62.6488 100.261L63.5482 98.4751ZM56.6503 94.794C55.5201 94.1517 54.3989 93.4923 53.2888 92.814L52.2459 94.5206C53.3753 95.2107 54.5148 95.8807 55.6621 96.5328L56.6503 94.794ZM49.9976 90.7224C48.9167 90.0072 47.849 89.2712 46.7966 88.5122L45.6267 90.1344C46.7021 90.9099 47.792 91.6612 48.894 92.3903L49.9976 90.7224ZM43.6925 86.1687C42.679 85.3669 41.6827 84.5405 40.7057 83.6874L39.3903 85.194C40.3927 86.0692 41.4139 86.9162 42.4517 87.7372L43.6925 86.1687ZM37.852 81.0634C36.9259 80.1658 36.0206 79.2401 35.1379 78.2843L33.6686 79.6412C34.577 80.6249 35.5082 81.577 36.46 82.4995L37.852 81.0634ZM32.601 75.3748C31.783 74.38 30.9885 73.3546 30.2195 72.2966L28.6017 73.4725C29.3945 74.5632 30.2134 75.6201 31.0562 76.6451L32.601 75.3748ZM28.0517 69.1193C27.3615 68.0397 26.6964 66.9282 26.0581 65.7831L24.3112 66.757C24.9692 67.9374 25.655 69.0833 26.3667 70.1965L28.0517 69.1193ZM24.2819 62.364C23.7267 61.2142 23.1971 60.0326 22.6943 58.8176L20.8463 59.5823C21.3636 60.8326 21.909 62.0492 22.4809 63.2336L24.2819 62.364ZM21.3181 55.2133C20.895 54.0077 20.497 52.7712 20.1254 51.5027L18.206 52.065C18.5874 53.3668 18.9961 54.6366 19.431 55.8756L21.3181 55.2133ZM19.1344 47.7817C18.8331 46.5289 18.5562 45.2467 18.3047 43.9338L16.3404 44.31C16.5977 45.653 16.8811 46.9658 17.1899 48.2495L19.1344 47.7817ZM17.6664 40.1654C17.4765 38.8819 17.3099 37.5708 17.1673 36.2313L15.1785 36.443C15.3239 37.8091 15.494 39.1472 15.6879 40.4581L17.6664 40.1654ZM16.8329 32.4238C16.7439 31.1477 16.6759 29.8471 16.6293 28.5214L14.6306 28.5915C14.6779 29.9398 14.7472 31.2634 14.8377 32.5629L16.8329 32.4238ZM16.5554 24.577C16.5518 23.324 16.5667 22.0495 16.6005 20.7532L14.6012 20.701C14.5669 22.0162 14.5518 23.31 14.5554 24.5827L16.5554 24.577ZM16.7593 16.7982C16.7954 16.128 16.8363 15.4522 16.8822 14.7708L14.8867 14.6364C14.8403 15.3267 14.7988 16.0114 14.7622 16.6906L16.7593 16.7982Z" fill="#EF1055"/>
</svg>
